<svg xmlns="http://www.w3.org/2000/svg" data-testid="icon-heart" viewBox="0 0 24 24"><path fill-rule="evenodd" d="M7.556 4c1.093 0 2.113.318 2.973.867A5.598 5.598 0 0 1 12 6.235a5.598 5.598 0 0 1 1.47-1.368A5.506 5.506 0 0 1 16.445 4C19.513 4 22 6.502 22 9.588c0 4.471-3.629 8.162-8.427 11.393-.951.64-2.195.64-3.146 0C5.629 17.751 2 14.06 2 9.588 2 6.502 4.487 4 7.556 4Zm2.842 3.432L12 9.577l1.602-2.145A3.536 3.536 0 0 1 16.444 6C18.397 6 20 7.595 20 9.588c0 3.347-2.756 6.51-7.544 9.734a.816.816 0 0 1-.912 0C6.756 16.098 4 12.935 4 9.588 4 7.595 5.603 6 7.556 6c1.157 0 2.188.556 2.842 1.432Z" clip-rule="evenodd"/></svg>